<svg version="1" xmlns="http://www.w3.org/2000/svg" width="1333.333" height="1333.333" viewBox="0 0 1000.000000 1000.000000"><path d="M484.8 311.1c-44.5 3.4-89.3 24.8-120.8 57.5-27.8 28.9-43.5 60.5-51.2 102.9-1.4 7.8-1.8 47.6-.5 53.7l.8 3.8h373.8l.8-3.8c1.3-6.1.9-45.9-.5-53.7-7.7-42.4-23.4-74-51.2-102.9-26.3-27.3-61.9-46.8-99.5-54.5-8.9-1.8-33.7-4.3-39-4-1.1.1-6.8.6-12.7 1zM5.6 564.1c-3.7 4.4-3.5 9 .5 12.3l3.1 2.6h982l2.9-2.9c4.1-4.1 4-9-.2-12.5l-3.1-2.6H8.2l-2.6 3.1zM61.9 595.9c-4.1 4.1-4 9 .2 12.5l3.1 2.6h150l2.9-2.9c4.1-4.1 4-9-.2-12.5l-3.1-2.6h-150l-2.9 2.9zM269.9 595.9c-3.9 4-3.9 8.2 0 12.2l2.9 2.9h710.4l2.9-2.9c3.5-3.6 3.8-8.4.8-12.1l-2.1-2.5-356-.3-355.9-.2-3 2.9zM21.9 627.9c-3.9 4-3.9 8.2 0 12.2l2.9 2.9h506.4l2.9-2.9c4.1-4.1 4-9-.2-12.5l-3.1-2.6h-506l-2.9 2.9zM561.9 627.9c-2 2-2.9 3.9-2.9 6.1 0 2.2.9 4.1 2.9 6.1l2.9 2.9h150.4l2.9-2.9c2-2 2.9-3.9 2.9-6.1 0-2.2-.9-4.1-2.9-6.1l-2.9-2.9H564.8l-2.9 2.9zM741.9 627.9c-2 2-2.9 3.9-2.9 6.1 0 2.2.9 4.1 2.9 6.1l2.9 2.9h186.4l2.9-2.9c4.1-4.1 4-9-.2-12.5l-3.1-2.6h-186l-2.9 2.9zM45.9 659.9c-2 2-2.9 3.9-2.9 6.1 0 2.2.9 4.1 2.9 6.1l2.9 2.9h427l2.6-3.1c3.7-4.4 3.5-9-.5-12.3l-3.1-2.6h-426l-2.9 2.9zM521.9 659.9c-4.1 4.1-4 9 .2 12.5l3.1 2.6h442.6l2.6-3.1c3.7-4.4 3.5-9-.5-12.3l-3.1-2.6h-442l-2.9 2.9zM149.6 692.1c-3.5 4.1-3.4 8.3.3 12l2.9 2.9h454.4l2.9-2.9c1.7-1.8 2.9-4 2.9-5.6 0-3.6-2.8-8.2-5.4-8.9-1.2-.3-104.1-.6-228.8-.6H152.2l-2.6 3.1zM681.6 692.1c-3.5 4.1-3.4 8.3.3 12l2.9 2.9h282.4l2.9-2.9c4.1-4.1 4-9-.2-12.5l-3.1-2.6H684.2l-2.6 3.1zM53.9 723.9c-4.1 4.1-4 9 .2 12.5l3.1 2.6h270l2.9-2.9c3.9-4 3.9-8.2 0-12.2l-2.9-2.9H56.8l-2.9 2.9zM401.9 723.9c-2 2-2.9 3.9-2.9 6.1 0 2.2.9 4.1 2.9 6.1l2.9 2.9h426.4l2.9-2.9c3.9-4 3.9-8.2 0-12.2l-2.9-2.9H404.8l-2.9 2.9zM89.9 755.9c-4.1 4.1-4 9 .2 12.5l3.1 2.6h298.6l2.6-3.1c3.7-4.4 3.5-9-.5-12.3l-3.1-2.6h-298l-2.9 2.9zM485.9 755.9c-3.5 3.6-3.8 8.4-.8 12.1l2.1 2.5 222.3.3 222.3.2 2.6-3.1c3.7-4.4 3.5-9-.5-12.3l-3.1-2.6h-442l-2.9 2.9zM185.6 788.1c-3.5 4.1-3.4 8.3.3 12l2.9 2.9h626.4l2.9-2.9c4.1-4.1 4-9-.2-12.5l-3.1-2.6H188.2l-2.6 3.1zM117.9 827.9c-2 2-2.9 3.9-2.9 6.1 0 2.2.9 4.1 2.9 6.1l2.9 2.9h150.4l2.9-2.9c3.9-4 3.9-8.2 0-12.2l-2.9-2.9H120.8l-2.9 2.9zM333.9 827.9c-4.1 4.1-4 9 .2 12.5l3.1 2.6h538l2.9-2.9c4.1-4.1 4-9-.2-12.5l-3.1-2.6h-538l-2.9 2.9zM205.9 859.9c-4.1 4.1-4 9 .2 12.5l3.1 2.6h202l2.9-2.9c2-2 2.9-3.9 2.9-6.1 0-2.2-.9-4.1-2.9-6.1l-2.9-2.9H208.8l-2.9 2.9zM485.9 859.9c-4.1 4.1-4 9 .2 12.5l3.1 2.6h342l2.9-2.9c3.9-4 3.9-8.2 0-12.2l-2.9-2.9H488.8l-2.9 2.9zM293.9 891.9c-2 2-2.9 3.9-2.9 6.1 0 2.2.9 4.1 2.9 6.1l2.9 2.9h342.4l2.9-2.9c4.1-4.1 4-9-.2-12.5l-3.1-2.6h-342l-2.9 2.9zM269.9 923.9c-2 2-2.9 3.9-2.9 6.1 0 2.2.9 4.1 2.9 6.1l2.9 2.9h222.4l2.9-2.9c2-2 2.9-3.9 2.9-6.1 0-2.2-.9-4.1-2.9-6.1l-2.9-2.9H272.8l-2.9 2.9zM577.9 923.9c-2 2-2.9 3.9-2.9 6.1 0 2.2.9 4.1 2.9 6.1l2.9 2.9h186.4l2.9-2.9c4.1-4.1 4-9-.2-12.5l-3.1-2.6h-186l-2.9 2.9zM357.9 955.9c-5 5.1-3.4 12 3.6 14.9 2.3 1 35.4 1.2 150.3 1l147.4-.3 2.9-3.3c3.9-4.3 3.9-8.4 0-12.3l-2.9-2.9H360.8l-2.9 2.9z"/></svg>