<?xml version="1.0" encoding="UTF-8" standalone="no"?>
<!DOCTYPE svg PUBLIC "-//W3C//DTD SVG 1.1//EN" "http://www.w3.org/Graphics/SVG/1.1/DTD/svg11.dtd">
<svg width="100%" height="100%" viewBox="0 0 250 250" version="1.1" xmlns="http://www.w3.org/2000/svg" xmlns:xlink="http://www.w3.org/1999/xlink" xml:space="preserve" xmlns:serif="http://www.serif.com/" style="fill-rule:evenodd;clip-rule:evenodd;stroke-linejoin:round;stroke-miterlimit:1.41421;">
    <circle id="Logo" cx="125" cy="125" r="125" style="fill:#1c1e26;"/>
    <clipPath id="_clip1">
        <circle cx="125" cy="125" r="125"/>
    </clipPath>
    <g clip-path="url(#_clip1)">
        <g>
            <path id="Ring" d="M125,30c52.432,0 95,42.568 95,95c0,52.432 -42.568,95 -95,95c-52.432,0 -95,-42.568 -95,-95c0,-52.432 42.568,-95 95,-95Zm0,14.25c44.567,0 80.75,36.183 80.75,80.75c0,44.567 -36.183,80.75 -80.75,80.75c-44.567,0 -80.75,-36.183 -80.75,-80.75c0,-44.567 36.183,-80.75 80.75,-80.75Z" style="fill:url(#_Linear2);"/>
            <text id="Code" x="56.812px" y="149.696px" style="font-family:'RobotoMono-Bold', 'Roboto Mono';font-weight:700;font-size:76px;fill:url(#_Linear3);">&lt;/&gt;</text>
        </g>
    </g>
    <defs>
        <linearGradient id="_Linear2" x1="0" y1="0" x2="1" y2="0" gradientUnits="userSpaceOnUse" gradientTransform="matrix(136,125,-125,136,54,65)"><stop offset="0" style="stop-color:#db6fbb;stop-opacity:1"/><stop offset="0.28" style="stop-color:#e95678;stop-opacity:1"/><stop offset="0.56" style="stop-color:#f0857e;stop-opacity:1"/><stop offset="0.84" style="stop-color:#fab38e;stop-opacity:1"/><stop offset="1" style="stop-color:#fac19a;stop-opacity:1"/></linearGradient>
        <linearGradient id="_Linear3" x1="0" y1="0" x2="1" y2="0" gradientUnits="userSpaceOnUse" gradientTransform="matrix(136,125,-125,136,56.3401,64.208)"><stop offset="0" style="stop-color:#db6fbb;stop-opacity:1"/><stop offset="0.28" style="stop-color:#e95678;stop-opacity:1"/><stop offset="0.56" style="stop-color:#f0857e;stop-opacity:1"/><stop offset="0.84" style="stop-color:#fab38e;stop-opacity:1"/><stop offset="1" style="stop-color:#fac19a;stop-opacity:1"/></linearGradient>
    </defs>
</svg>
